<?xml version="1.0" encoding="UTF-8"?>
<svg width="24px" height="24px" viewBox="0 0 24 24" version="1.1" xmlns="http://www.w3.org/2000/svg" xmlns:xlink="http://www.w3.org/1999/xlink">
    <title>shopping-cart</title>
    <g id="Page-1" stroke="none" stroke-width="1" fill="none" fill-rule="evenodd">
        <g id="shopping-cart">
            <rect id="Rectangle" x="0" y="0" width="24" height="24"></rect>
            <path d="M17,18 C15.9,18 15,18.9 15,20 C15,21.1 15.9,22 17,22 C18.1,22 19,21.1 19,20 C19,18.9 18.1,18 17,18 Z M9,18 C7.9,18 7,18.9 7,20 C7,21.1 7.9,22 9,22 C10.1,22 11,21.1 11,20 C11,18.9 10.1,18 9,18 Z M20,9 L20,5 L7.3,5 L6.9,2 L6,2 L3,2 C3,3.1 3.9,4 5,4 L5.1,4 L7.1,17 L15,17 L19,17 C19,15.9 18.1,15 17,15 L8.9,15 L8.6,13 L16,13 C18.2,13 20,11.2 20,9 Z M8.2,11 L7.6,7 L18,7 L18,9 C18,10.1 17.1,11 16,11 L8.2,11 Z" id="Shape" fill="#FFFFFF" fill-rule="nonzero"></path>
        </g>
    </g>
</svg>